<mxfile host="app.diagrams.net" modified="2022-03-14T19:09:21.936Z" agent="5.0 (Windows NT 10.0; Win64; x64) AppleWebKit/537.36 (KHTML, like Gecko) Chrome/99.0.4844.51 Safari/537.36" etag="3JsqRRY8UVnX_m9hpL1K" version="17.1.0" type="gitlab">
  <diagram id="C5RBs43oDa-KdzZeNtuy" name="Page-1">
    <mxGraphModel dx="1597" dy="829" grid="1" gridSize="10" guides="1" tooltips="1" connect="1" arrows="1" fold="1" page="1" pageScale="1" pageWidth="1654" pageHeight="1169" math="0" shadow="0">
      <root>
        <mxCell id="WIyWlLk6GJQsqaUBKTNV-0" />
        <mxCell id="WIyWlLk6GJQsqaUBKTNV-1" parent="WIyWlLk6GJQsqaUBKTNV-0" />
        <mxCell id="6_cXleNo7eCRmuPfdDWA-15" value="" style="edgeStyle=orthogonalEdgeStyle;rounded=0;orthogonalLoop=1;jettySize=auto;html=1;" edge="1" parent="WIyWlLk6GJQsqaUBKTNV-1" source="6_cXleNo7eCRmuPfdDWA-1" target="6_cXleNo7eCRmuPfdDWA-14">
          <mxGeometry relative="1" as="geometry" />
        </mxCell>
        <mxCell id="6_cXleNo7eCRmuPfdDWA-35" style="edgeStyle=orthogonalEdgeStyle;rounded=0;orthogonalLoop=1;jettySize=auto;html=1;exitX=0.5;exitY=1;exitDx=0;exitDy=0;entryX=0.5;entryY=0;entryDx=0;entryDy=0;" edge="1" parent="WIyWlLk6GJQsqaUBKTNV-1" source="6_cXleNo7eCRmuPfdDWA-1" target="6_cXleNo7eCRmuPfdDWA-22">
          <mxGeometry relative="1" as="geometry" />
        </mxCell>
        <mxCell id="6_cXleNo7eCRmuPfdDWA-1" value="WWS" style="rounded=1;whiteSpace=wrap;html=1;" vertex="1" parent="WIyWlLk6GJQsqaUBKTNV-1">
          <mxGeometry x="430" y="200.5" width="120" height="30" as="geometry" />
        </mxCell>
        <mxCell id="6_cXleNo7eCRmuPfdDWA-36" style="edgeStyle=orthogonalEdgeStyle;rounded=0;orthogonalLoop=1;jettySize=auto;html=1;exitX=1;exitY=0.5;exitDx=0;exitDy=0;entryX=0;entryY=0.5;entryDx=0;entryDy=0;" edge="1" parent="WIyWlLk6GJQsqaUBKTNV-1" source="6_cXleNo7eCRmuPfdDWA-1" target="6_cXleNo7eCRmuPfdDWA-3">
          <mxGeometry relative="1" as="geometry" />
        </mxCell>
        <mxCell id="6_cXleNo7eCRmuPfdDWA-38" value="" style="edgeStyle=orthogonalEdgeStyle;rounded=0;orthogonalLoop=1;jettySize=auto;html=1;" edge="1" parent="WIyWlLk6GJQsqaUBKTNV-1" source="6_cXleNo7eCRmuPfdDWA-3" target="6_cXleNo7eCRmuPfdDWA-37">
          <mxGeometry relative="1" as="geometry" />
        </mxCell>
        <mxCell id="6_cXleNo7eCRmuPfdDWA-3" value="Total shifts" style="whiteSpace=wrap;html=1;rounded=1;" vertex="1" parent="WIyWlLk6GJQsqaUBKTNV-1">
          <mxGeometry x="650" y="80" width="90" height="35" as="geometry" />
        </mxCell>
        <mxCell id="6_cXleNo7eCRmuPfdDWA-12" style="edgeStyle=orthogonalEdgeStyle;rounded=0;orthogonalLoop=1;jettySize=auto;html=1;exitX=1;exitY=0.5;exitDx=0;exitDy=0;entryX=0;entryY=0.5;entryDx=0;entryDy=0;" edge="1" parent="WIyWlLk6GJQsqaUBKTNV-1" source="6_cXleNo7eCRmuPfdDWA-5" target="6_cXleNo7eCRmuPfdDWA-7">
          <mxGeometry relative="1" as="geometry" />
        </mxCell>
        <mxCell id="6_cXleNo7eCRmuPfdDWA-5" value="AVA" style="whiteSpace=wrap;html=1;rounded=1;" vertex="1" parent="WIyWlLk6GJQsqaUBKTNV-1">
          <mxGeometry x="240" y="70" width="100" height="35" as="geometry" />
        </mxCell>
        <mxCell id="6_cXleNo7eCRmuPfdDWA-9" style="edgeStyle=orthogonalEdgeStyle;rounded=0;orthogonalLoop=1;jettySize=auto;html=1;exitX=0.5;exitY=1;exitDx=0;exitDy=0;entryX=0.5;entryY=0;entryDx=0;entryDy=0;" edge="1" parent="WIyWlLk6GJQsqaUBKTNV-1" source="6_cXleNo7eCRmuPfdDWA-7" target="6_cXleNo7eCRmuPfdDWA-1">
          <mxGeometry relative="1" as="geometry" />
        </mxCell>
        <mxCell id="6_cXleNo7eCRmuPfdDWA-7" value="Anexinet" style="whiteSpace=wrap;html=1;rounded=1;" vertex="1" parent="WIyWlLk6GJQsqaUBKTNV-1">
          <mxGeometry x="430" y="70" width="120" height="32.5" as="geometry" />
        </mxCell>
        <mxCell id="6_cXleNo7eCRmuPfdDWA-10" value="AVA&amp;nbsp; Partner" style="text;html=1;align=center;verticalAlign=middle;resizable=0;points=[];autosize=1;strokeColor=none;fillColor=none;" vertex="1" parent="WIyWlLk6GJQsqaUBKTNV-1">
          <mxGeometry x="340" y="60" width="80" height="20" as="geometry" />
        </mxCell>
        <mxCell id="6_cXleNo7eCRmuPfdDWA-13" value="Client" style="text;html=1;align=center;verticalAlign=middle;resizable=0;points=[];autosize=1;strokeColor=none;fillColor=none;" vertex="1" parent="WIyWlLk6GJQsqaUBKTNV-1">
          <mxGeometry x="495" y="140" width="50" height="20" as="geometry" />
        </mxCell>
        <mxCell id="6_cXleNo7eCRmuPfdDWA-14" value="Sound based Speaker manufacturing company" style="whiteSpace=wrap;html=1;rounded=1;" vertex="1" parent="WIyWlLk6GJQsqaUBKTNV-1">
          <mxGeometry x="200" y="198.5" width="145" height="34.5" as="geometry" />
        </mxCell>
        <mxCell id="6_cXleNo7eCRmuPfdDWA-26" style="edgeStyle=orthogonalEdgeStyle;rounded=0;orthogonalLoop=1;jettySize=auto;html=1;exitX=0.5;exitY=1;exitDx=0;exitDy=0;entryX=0.5;entryY=0;entryDx=0;entryDy=0;" edge="1" parent="WIyWlLk6GJQsqaUBKTNV-1" source="6_cXleNo7eCRmuPfdDWA-22" target="6_cXleNo7eCRmuPfdDWA-24">
          <mxGeometry relative="1" as="geometry" />
        </mxCell>
        <mxCell id="6_cXleNo7eCRmuPfdDWA-22" value="Tools we use to monitor resources" style="rounded=1;whiteSpace=wrap;html=1;" vertex="1" parent="WIyWlLk6GJQsqaUBKTNV-1">
          <mxGeometry x="430" y="293" width="120" height="30" as="geometry" />
        </mxCell>
        <mxCell id="6_cXleNo7eCRmuPfdDWA-28" style="edgeStyle=orthogonalEdgeStyle;rounded=0;orthogonalLoop=1;jettySize=auto;html=1;exitX=0.5;exitY=1;exitDx=0;exitDy=0;entryX=0.5;entryY=0;entryDx=0;entryDy=0;" edge="1" parent="WIyWlLk6GJQsqaUBKTNV-1" source="6_cXleNo7eCRmuPfdDWA-23" target="6_cXleNo7eCRmuPfdDWA-25">
          <mxGeometry relative="1" as="geometry" />
        </mxCell>
        <mxCell id="6_cXleNo7eCRmuPfdDWA-32" value="" style="edgeStyle=orthogonalEdgeStyle;rounded=0;orthogonalLoop=1;jettySize=auto;html=1;" edge="1" parent="WIyWlLk6GJQsqaUBKTNV-1" source="6_cXleNo7eCRmuPfdDWA-23" target="6_cXleNo7eCRmuPfdDWA-31">
          <mxGeometry relative="1" as="geometry" />
        </mxCell>
        <mxCell id="6_cXleNo7eCRmuPfdDWA-23" value="Auto task" style="rounded=1;whiteSpace=wrap;html=1;" vertex="1" parent="WIyWlLk6GJQsqaUBKTNV-1">
          <mxGeometry x="430" y="458" width="120" height="30" as="geometry" />
        </mxCell>
        <mxCell id="6_cXleNo7eCRmuPfdDWA-27" style="edgeStyle=orthogonalEdgeStyle;rounded=0;orthogonalLoop=1;jettySize=auto;html=1;exitX=0.5;exitY=1;exitDx=0;exitDy=0;entryX=0.5;entryY=0;entryDx=0;entryDy=0;" edge="1" parent="WIyWlLk6GJQsqaUBKTNV-1" source="6_cXleNo7eCRmuPfdDWA-24" target="6_cXleNo7eCRmuPfdDWA-23">
          <mxGeometry relative="1" as="geometry" />
        </mxCell>
        <mxCell id="6_cXleNo7eCRmuPfdDWA-34" value="" style="edgeStyle=orthogonalEdgeStyle;rounded=0;orthogonalLoop=1;jettySize=auto;html=1;" edge="1" parent="WIyWlLk6GJQsqaUBKTNV-1" source="6_cXleNo7eCRmuPfdDWA-24" target="6_cXleNo7eCRmuPfdDWA-33">
          <mxGeometry relative="1" as="geometry" />
        </mxCell>
        <mxCell id="6_cXleNo7eCRmuPfdDWA-24" value="Kaseya" style="rounded=1;whiteSpace=wrap;html=1;" vertex="1" parent="WIyWlLk6GJQsqaUBKTNV-1">
          <mxGeometry x="430" y="377" width="120" height="30" as="geometry" />
        </mxCell>
        <mxCell id="6_cXleNo7eCRmuPfdDWA-30" value="" style="edgeStyle=orthogonalEdgeStyle;rounded=0;orthogonalLoop=1;jettySize=auto;html=1;" edge="1" parent="WIyWlLk6GJQsqaUBKTNV-1" source="6_cXleNo7eCRmuPfdDWA-25" target="6_cXleNo7eCRmuPfdDWA-29">
          <mxGeometry relative="1" as="geometry" />
        </mxCell>
        <mxCell id="6_cXleNo7eCRmuPfdDWA-25" value="&lt;span style=&quot;font-family: &amp;#34;calibri&amp;#34; , sans-serif ; font-size: 14.6667px ; text-align: left ; background-color: rgb(255 , 255 , 255)&quot;&gt;Logic monitor&lt;/span&gt;" style="rounded=1;whiteSpace=wrap;html=1;" vertex="1" parent="WIyWlLk6GJQsqaUBKTNV-1">
          <mxGeometry x="430" y="540" width="120" height="30" as="geometry" />
        </mxCell>
        <mxCell id="6_cXleNo7eCRmuPfdDWA-29" value="&lt;span style=&quot;font-family: &amp;#34;calibri&amp;#34; , sans-serif ; font-size: 14.6667px ; text-align: left ; background-color: rgb(255 , 255 , 255)&quot;&gt;To check the status of the ticket&lt;/span&gt;" style="rounded=1;whiteSpace=wrap;html=1;" vertex="1" parent="WIyWlLk6GJQsqaUBKTNV-1">
          <mxGeometry x="230" y="535" width="120" height="40" as="geometry" />
        </mxCell>
        <mxCell id="6_cXleNo7eCRmuPfdDWA-31" value="To manage ticket&#39;s status" style="rounded=1;whiteSpace=wrap;html=1;" vertex="1" parent="WIyWlLk6GJQsqaUBKTNV-1">
          <mxGeometry x="230" y="458" width="120" height="30" as="geometry" />
        </mxCell>
        <mxCell id="6_cXleNo7eCRmuPfdDWA-33" value="To connect with rdp and check resources" style="rounded=1;whiteSpace=wrap;html=1;" vertex="1" parent="WIyWlLk6GJQsqaUBKTNV-1">
          <mxGeometry x="230" y="377" width="120" height="30" as="geometry" />
        </mxCell>
        <mxCell id="6_cXleNo7eCRmuPfdDWA-40" value="" style="edgeStyle=orthogonalEdgeStyle;rounded=0;orthogonalLoop=1;jettySize=auto;html=1;" edge="1" parent="WIyWlLk6GJQsqaUBKTNV-1" source="6_cXleNo7eCRmuPfdDWA-37" target="6_cXleNo7eCRmuPfdDWA-39">
          <mxGeometry relative="1" as="geometry" />
        </mxCell>
        <mxCell id="6_cXleNo7eCRmuPfdDWA-50" value="" style="edgeStyle=orthogonalEdgeStyle;rounded=0;orthogonalLoop=1;jettySize=auto;html=1;" edge="1" parent="WIyWlLk6GJQsqaUBKTNV-1" source="6_cXleNo7eCRmuPfdDWA-37" target="6_cXleNo7eCRmuPfdDWA-49">
          <mxGeometry relative="1" as="geometry" />
        </mxCell>
        <mxCell id="6_cXleNo7eCRmuPfdDWA-37" value="Weekdays" style="whiteSpace=wrap;html=1;rounded=1;" vertex="1" parent="WIyWlLk6GJQsqaUBKTNV-1">
          <mxGeometry x="820" y="80" width="90" height="35" as="geometry" />
        </mxCell>
        <mxCell id="6_cXleNo7eCRmuPfdDWA-64" style="edgeStyle=orthogonalEdgeStyle;rounded=0;orthogonalLoop=1;jettySize=auto;html=1;exitX=0.5;exitY=1;exitDx=0;exitDy=0;" edge="1" parent="WIyWlLk6GJQsqaUBKTNV-1" source="6_cXleNo7eCRmuPfdDWA-39">
          <mxGeometry relative="1" as="geometry">
            <mxPoint x="1044.5384615384614" y="160" as="targetPoint" />
          </mxGeometry>
        </mxCell>
        <mxCell id="6_cXleNo7eCRmuPfdDWA-39" value="Weekends" style="whiteSpace=wrap;html=1;rounded=1;" vertex="1" parent="WIyWlLk6GJQsqaUBKTNV-1">
          <mxGeometry x="990" y="80" width="110" height="35" as="geometry" />
        </mxCell>
        <mxCell id="6_cXleNo7eCRmuPfdDWA-53" style="edgeStyle=orthogonalEdgeStyle;rounded=0;orthogonalLoop=1;jettySize=auto;html=1;exitX=0.5;exitY=1;exitDx=0;exitDy=0;" edge="1" parent="WIyWlLk6GJQsqaUBKTNV-1" source="6_cXleNo7eCRmuPfdDWA-49">
          <mxGeometry relative="1" as="geometry">
            <mxPoint x="864.5384615384614" y="290" as="targetPoint" />
          </mxGeometry>
        </mxCell>
        <mxCell id="6_cXleNo7eCRmuPfdDWA-49" value="1 st shift - Aravinth&lt;br&gt;(6 to 2)" style="whiteSpace=wrap;html=1;rounded=1;" vertex="1" parent="WIyWlLk6GJQsqaUBKTNV-1">
          <mxGeometry x="810" y="195" width="110" height="35" as="geometry" />
        </mxCell>
        <mxCell id="6_cXleNo7eCRmuPfdDWA-54" style="edgeStyle=orthogonalEdgeStyle;rounded=0;orthogonalLoop=1;jettySize=auto;html=1;exitX=0.5;exitY=1;exitDx=0;exitDy=0;entryX=0.5;entryY=0;entryDx=0;entryDy=0;" edge="1" parent="WIyWlLk6GJQsqaUBKTNV-1" source="6_cXleNo7eCRmuPfdDWA-51" target="6_cXleNo7eCRmuPfdDWA-52">
          <mxGeometry relative="1" as="geometry" />
        </mxCell>
        <mxCell id="6_cXleNo7eCRmuPfdDWA-51" value="2 st shift - Moushmi&lt;br&gt;(2 to 10)" style="whiteSpace=wrap;html=1;rounded=1;" vertex="1" parent="WIyWlLk6GJQsqaUBKTNV-1">
          <mxGeometry x="810" y="293" width="110" height="35" as="geometry" />
        </mxCell>
        <mxCell id="6_cXleNo7eCRmuPfdDWA-52" value="3 st shift - Dharani&lt;br&gt;(10 to 6)" style="whiteSpace=wrap;html=1;rounded=1;" vertex="1" parent="WIyWlLk6GJQsqaUBKTNV-1">
          <mxGeometry x="810" y="383" width="110" height="35" as="geometry" />
        </mxCell>
        <mxCell id="6_cXleNo7eCRmuPfdDWA-61" style="edgeStyle=orthogonalEdgeStyle;rounded=0;orthogonalLoop=1;jettySize=auto;html=1;exitX=0.5;exitY=1;exitDx=0;exitDy=0;entryX=0.5;entryY=0;entryDx=0;entryDy=0;" edge="1" parent="WIyWlLk6GJQsqaUBKTNV-1" source="6_cXleNo7eCRmuPfdDWA-55" target="6_cXleNo7eCRmuPfdDWA-56">
          <mxGeometry relative="1" as="geometry" />
        </mxCell>
        <mxCell id="6_cXleNo7eCRmuPfdDWA-55" value="1 st shift - Aravinth&lt;br&gt;6 am to 2 pm" style="whiteSpace=wrap;html=1;rounded=1;" vertex="1" parent="WIyWlLk6GJQsqaUBKTNV-1">
          <mxGeometry x="990" y="165.5" width="110" height="35" as="geometry" />
        </mxCell>
        <mxCell id="6_cXleNo7eCRmuPfdDWA-62" style="edgeStyle=orthogonalEdgeStyle;rounded=0;orthogonalLoop=1;jettySize=auto;html=1;exitX=0.5;exitY=1;exitDx=0;exitDy=0;entryX=0.5;entryY=0;entryDx=0;entryDy=0;" edge="1" parent="WIyWlLk6GJQsqaUBKTNV-1" source="6_cXleNo7eCRmuPfdDWA-56" target="6_cXleNo7eCRmuPfdDWA-57">
          <mxGeometry relative="1" as="geometry" />
        </mxCell>
        <mxCell id="6_cXleNo7eCRmuPfdDWA-56" value="2 shift -Parthiban&lt;br&gt;2 pm to 10 pm" style="whiteSpace=wrap;html=1;rounded=1;" vertex="1" parent="WIyWlLk6GJQsqaUBKTNV-1">
          <mxGeometry x="990" y="240" width="110" height="35" as="geometry" />
        </mxCell>
        <mxCell id="6_cXleNo7eCRmuPfdDWA-63" style="edgeStyle=orthogonalEdgeStyle;rounded=0;orthogonalLoop=1;jettySize=auto;html=1;exitX=0.5;exitY=1;exitDx=0;exitDy=0;" edge="1" parent="WIyWlLk6GJQsqaUBKTNV-1" source="6_cXleNo7eCRmuPfdDWA-57">
          <mxGeometry relative="1" as="geometry">
            <mxPoint x="1044.5384615384614" y="380" as="targetPoint" />
          </mxGeometry>
        </mxCell>
        <mxCell id="6_cXleNo7eCRmuPfdDWA-57" value="Weekends" style="whiteSpace=wrap;html=1;rounded=1;" vertex="1" parent="WIyWlLk6GJQsqaUBKTNV-1">
          <mxGeometry x="990" y="310" width="110" height="35" as="geometry" />
        </mxCell>
        <mxCell id="6_cXleNo7eCRmuPfdDWA-58" value="Weekends" style="whiteSpace=wrap;html=1;rounded=1;" vertex="1" parent="WIyWlLk6GJQsqaUBKTNV-1">
          <mxGeometry x="990" y="383" width="110" height="35" as="geometry" />
        </mxCell>
      </root>
    </mxGraphModel>
  </diagram>
</mxfile>
